<mxfile host="Electron" modified="2024-03-19T16:06:05.847Z" agent="Mozilla/5.0 (Windows NT 10.0; Win64; x64) AppleWebKit/537.36 (KHTML, like Gecko) draw.io/24.0.4 Chrome/120.0.6099.109 Electron/28.1.0 Safari/537.36" etag="uaPEL3s3iYSQpTUz69ec" version="24.0.4" type="device">
  <diagram name="Page-1" id="Tm5-Pf5zLw2kzrvyumlG">
    <mxGraphModel dx="989" dy="582" grid="1" gridSize="10" guides="0" tooltips="1" connect="1" arrows="1" fold="1" page="1" pageScale="1" pageWidth="3300" pageHeight="2339" math="0" shadow="0">
      <root>
        <mxCell id="0" />
        <mxCell id="1" parent="0" />
        <mxCell id="Ixpic3u72azCKcVnDw46-1" value="Источник питания" style="rounded=0;whiteSpace=wrap;html=1;" vertex="1" parent="1">
          <mxGeometry x="1320" y="640" width="120" height="60" as="geometry" />
        </mxCell>
        <mxCell id="Ixpic3u72azCKcVnDw46-2" value="Блок управления питанием" style="rounded=0;whiteSpace=wrap;html=1;" vertex="1" parent="1">
          <mxGeometry x="1320" y="720" width="120" height="60" as="geometry" />
        </mxCell>
        <mxCell id="Ixpic3u72azCKcVnDw46-3" value="Генератор" style="rounded=0;whiteSpace=wrap;html=1;" vertex="1" parent="1">
          <mxGeometry x="1320" y="800" width="120" height="60" as="geometry" />
        </mxCell>
        <mxCell id="Ixpic3u72azCKcVnDw46-4" value="Преобразователь генерируемых импульсов" style="rounded=0;whiteSpace=wrap;html=1;" vertex="1" parent="1">
          <mxGeometry x="1320" y="880" width="120" height="60" as="geometry" />
        </mxCell>
        <mxCell id="Ixpic3u72azCKcVnDw46-5" value="Осциллятор, управляемый напряжением" style="rounded=0;whiteSpace=wrap;html=1;" vertex="1" parent="1">
          <mxGeometry x="1460" y="880" width="120" height="60" as="geometry" />
        </mxCell>
        <mxCell id="Ixpic3u72azCKcVnDw46-6" value="Вывод на радиоантенну" style="rounded=0;whiteSpace=wrap;html=1;" vertex="1" parent="1">
          <mxGeometry x="1600" y="880" width="120" height="60" as="geometry" />
        </mxCell>
        <mxCell id="Ixpic3u72azCKcVnDw46-7" value="Антенна" style="rounded=0;whiteSpace=wrap;html=1;" vertex="1" parent="1">
          <mxGeometry x="1600" y="960" width="120" height="60" as="geometry" />
        </mxCell>
        <mxCell id="Ixpic3u72azCKcVnDw46-8" value="" style="endArrow=classic;html=1;rounded=0;" edge="1" parent="1">
          <mxGeometry width="50" height="50" relative="1" as="geometry">
            <mxPoint x="1379.71" y="700" as="sourcePoint" />
            <mxPoint x="1379.71" y="720" as="targetPoint" />
          </mxGeometry>
        </mxCell>
        <mxCell id="Ixpic3u72azCKcVnDw46-9" value="" style="endArrow=classic;html=1;rounded=0;" edge="1" parent="1" source="Ixpic3u72azCKcVnDw46-2" target="Ixpic3u72azCKcVnDw46-3">
          <mxGeometry width="50" height="50" relative="1" as="geometry">
            <mxPoint x="1379.71" y="780" as="sourcePoint" />
            <mxPoint x="1379.71" y="800" as="targetPoint" />
          </mxGeometry>
        </mxCell>
        <mxCell id="Ixpic3u72azCKcVnDw46-10" value="" style="endArrow=classic;html=1;rounded=0;" edge="1" parent="1" source="Ixpic3u72azCKcVnDw46-3" target="Ixpic3u72azCKcVnDw46-4">
          <mxGeometry width="50" height="50" relative="1" as="geometry">
            <mxPoint x="1379.71" y="860" as="sourcePoint" />
            <mxPoint x="1379.71" y="880" as="targetPoint" />
          </mxGeometry>
        </mxCell>
        <mxCell id="Ixpic3u72azCKcVnDw46-11" value="" style="endArrow=classic;html=1;rounded=0;" edge="1" parent="1" source="Ixpic3u72azCKcVnDw46-4" target="Ixpic3u72azCKcVnDw46-5">
          <mxGeometry width="50" height="50" relative="1" as="geometry">
            <mxPoint x="1379.71" y="940" as="sourcePoint" />
            <mxPoint x="1379.71" y="960" as="targetPoint" />
          </mxGeometry>
        </mxCell>
        <mxCell id="Ixpic3u72azCKcVnDw46-12" value="" style="endArrow=classic;html=1;rounded=0;" edge="1" parent="1" source="Ixpic3u72azCKcVnDw46-5" target="Ixpic3u72azCKcVnDw46-6">
          <mxGeometry width="50" height="50" relative="1" as="geometry">
            <mxPoint x="1389.71" y="950" as="sourcePoint" />
            <mxPoint x="1389.71" y="970" as="targetPoint" />
          </mxGeometry>
        </mxCell>
        <mxCell id="Ixpic3u72azCKcVnDw46-13" value="" style="endArrow=classic;html=1;rounded=0;" edge="1" parent="1" source="Ixpic3u72azCKcVnDw46-6" target="Ixpic3u72azCKcVnDw46-7">
          <mxGeometry width="50" height="50" relative="1" as="geometry">
            <mxPoint x="1390" y="1030" as="sourcePoint" />
            <mxPoint x="1390" y="1050" as="targetPoint" />
          </mxGeometry>
        </mxCell>
        <mxCell id="Ixpic3u72azCKcVnDw46-15" value="" style="endArrow=classic;html=1;rounded=0;" edge="1" parent="1" source="Ixpic3u72azCKcVnDw46-2" target="Ixpic3u72azCKcVnDw46-4">
          <mxGeometry width="50" height="50" relative="1" as="geometry">
            <mxPoint x="1390" y="790" as="sourcePoint" />
            <mxPoint x="1390" y="810" as="targetPoint" />
            <Array as="points">
              <mxPoint x="1290" y="750" />
              <mxPoint x="1290" y="910" />
            </Array>
          </mxGeometry>
        </mxCell>
        <mxCell id="Ixpic3u72azCKcVnDw46-16" value="" style="shape=waypoint;sketch=0;fillStyle=solid;size=6;pointerEvents=1;points=[];fillColor=none;resizable=0;rotatable=0;perimeter=centerPerimeter;snapToPoint=1;" vertex="1" parent="1">
          <mxGeometry x="1510" y="740" width="20" height="20" as="geometry" />
        </mxCell>
        <mxCell id="Ixpic3u72azCKcVnDw46-18" value="" style="endArrow=classic;html=1;rounded=0;exitX=0.807;exitY=0.5;exitDx=0;exitDy=0;exitPerimeter=0;" edge="1" parent="1" source="Ixpic3u72azCKcVnDw46-16" target="Ixpic3u72azCKcVnDw46-6">
          <mxGeometry width="50" height="50" relative="1" as="geometry">
            <mxPoint x="1630" y="810" as="sourcePoint" />
            <mxPoint x="1670" y="730" as="targetPoint" />
            <Array as="points">
              <mxPoint x="1660" y="750" />
            </Array>
          </mxGeometry>
        </mxCell>
        <mxCell id="Ixpic3u72azCKcVnDw46-20" value="" style="endArrow=none;html=1;rounded=0;entryX=0.107;entryY=0.5;entryDx=0;entryDy=0;entryPerimeter=0;" edge="1" parent="1" source="Ixpic3u72azCKcVnDw46-2" target="Ixpic3u72azCKcVnDw46-16">
          <mxGeometry width="50" height="50" relative="1" as="geometry">
            <mxPoint x="1440" y="730" as="sourcePoint" />
            <mxPoint x="1490" y="680" as="targetPoint" />
          </mxGeometry>
        </mxCell>
        <mxCell id="Ixpic3u72azCKcVnDw46-21" value="" style="endArrow=classic;html=1;rounded=0;exitX=0.779;exitY=0.529;exitDx=0;exitDy=0;exitPerimeter=0;" edge="1" parent="1" source="Ixpic3u72azCKcVnDw46-16" target="Ixpic3u72azCKcVnDw46-5">
          <mxGeometry width="50" height="50" relative="1" as="geometry">
            <mxPoint x="1570" y="760" as="sourcePoint" />
            <mxPoint x="1570" y="800" as="targetPoint" />
          </mxGeometry>
        </mxCell>
      </root>
    </mxGraphModel>
  </diagram>
</mxfile>
